HIERARCHY
ROOT Hips
{
     OFFSET 1.88212 96.90440 -13.34250
     CHANNELS 6 Xposition Yposition Zposition Zrotation Xrotation Yrotation
     JOINT Spine
     {
          OFFSET 0.00000 11.89050 0.00000
          CHANNELS 3 Zrotation Xrotation Yrotation
          JOINT Spine1
          {
               OFFSET -0.00000 25.65740 0.12766
               CHANNELS 3 Zrotation Xrotation Yrotation
               JOINT HEad
               {
                    OFFSET 0.00000 8.73416 0.01134
                    CHANNELS 3 Zrotation Xrotation Yrotation
                    End Site
                    {
                         OFFSET -0.29000 12.77420 2.51395
                    }
               }
               JOINT LeftShoulder1
               {
                    OFFSET 8.99000 -0.36225 -0.22000
                    CHANNELS 3 Zrotation Xrotation Yrotation
                    JOINT LeftArm
                    {
                         OFFSET 10.28270 -0.00338 0.32212
                         CHANNELS 3 Zrotation Xrotation Yrotation
                         JOINT LeftForeArm
                         {
                              OFFSET 32.76690 0.09914 -1.42434
                              CHANNELS 3 Zrotation Xrotation Yrotation
                              JOINT LeftHand
                              {
                                   OFFSET 27.56430 0.08536 1.02216
                                   CHANNELS 3 Zrotation Xrotation Yrotation
                                   End Site
                                   {
                                        OFFSET 16.74430 -0.60000 1.50291
                                   }
                              }
                         }
                    }
               }
               JOINT RightShoulder
               {
                    OFFSET -8.99000 -0.36225 -0.22000
                    CHANNELS 3 Zrotation Xrotation Yrotation
                    JOINT RightArm
                    {
                         OFFSET -10.28270 -0.00338 0.32212
                         CHANNELS 3 Zrotation Xrotation Yrotation
                         JOINT RightForeArm
                         {
                              OFFSET -32.89710 0.09914 -1.42434
                              CHANNELS 3 Zrotation Xrotation Yrotation
                              JOINT RightHand
                              {
                                   OFFSET -27.49210 0.08536 1.02216
                                   CHANNELS 3 Zrotation Xrotation Yrotation
                                   End Site
                                   {
                                        OFFSET -16.63120 -0.60000 1.50291
                                   }
                              }
                         }
                    }
               }
          }
     }
     JOINT LeftUpLeg
     {
          OFFSET 8.94580 -8.66707 0.10165
          CHANNELS 3 Zrotation Xrotation Yrotation
          JOINT LeftLeg
          {
               OFFSET 0.00000 -44.42270 1.37270
               CHANNELS 3 Zrotation Xrotation Yrotation
               JOINT LeftFoot
               {
                    OFFSET -0.25355 -42.09240 -1.46059
                    CHANNELS 3 Zrotation Xrotation Yrotation
                    JOINT LeftToes
                    {
                         OFFSET -0.04000 -4.41509 8.49910
                         CHANNELS 3 Zrotation Xrotation Yrotation
                         End Site
                         {
                              OFFSET 0.08000 -0.04745 9.77979
                         }
                    }
               }
          }
     }
     JOINT RightUpLeg
     {
          OFFSET -8.94580 -8.66707 0.10165
          CHANNELS 3 Zrotation Xrotation Yrotation
          JOINT RightLeg
          {
               OFFSET 0.00000 -44.42270 1.37270
               CHANNELS 3 Zrotation Xrotation Yrotation
               JOINT RightFoot
               {
                    OFFSET 0.25355 -42.09240 -1.46059
                    CHANNELS 3 Zrotation Xrotation Yrotation
                    JOINT RightToes
                    {
                         OFFSET 0.04000 -4.41509 8.49910
                         CHANNELS 3 Zrotation Xrotation Yrotation
                         End Site
                         {
                              OFFSET -0.08000 -0.13745 9.77979
                         }
                    }
               }
          }
     }
}
MOTION
Frames: 19
Frame Time: 0.01667
-7.17741 91.80412 129.65176 -16.59317 3.50282 -116.17923 -15.54336 35.13723 0.31021 0.02825 0.00393 -0.05781 2.79417 -0.89095 8.85300 8.00054 3.89028 -14.94312 -116.87640 -39.00413 -88.49982 291.55972 37.43971 -23.90146 35.89835 20.93042 -40.78217 22.57558 3.29738 -12.76308 84.21974 -12.68761 43.55648 1.46481 32.27854 129.53700 17.08751 11.92557 7.74182 15.34822 -17.73324 -20.45895 -40.81839 27.58156 84.78364 4.77021 0.17993 -0.08616 3.01107 -19.10888 -66.97504 -27.61784 11.81423 -31.60939 8.76955 40.34607 -0.83843 -30.01832 0.00312 -0.00417 18.32755 -65.79028 29.45511 
-7.28069 91.98515 129.22385 -16.79342 3.20314 -114.81577 -14.82591 34.96881 -0.51469 0.07027 0.05668 -0.13249 3.47470 0.04777 5.72240 8.91677 4.48545 -17.93164 -117.15436 -43.40858 -89.74232 300.83151 45.93891 -33.06202 44.43739 32.74759 -37.04243 23.66867 3.35705 -15.08551 83.42918 -6.94793 53.88562 -1.55021 31.57312 127.36259 11.58218 7.74010 0.83524 15.41769 -18.80855 -17.15780 -38.39549 27.91305 75.97748 11.39603 0.25874 -0.16334 -17.15361 -22.34207 -74.22459 -25.55952 13.33862 -26.68670 10.37675 36.82570 -10.14824 -30.00191 0.00130 -0.00358 24.58314 -65.54360 34.88368 
-7.44440 91.98325 128.84616 -16.58517 4.23435 -115.69666 -13.01199 34.74714 -1.12600 0.06646 0.05218 -0.11890 4.03914 0.37139 3.05493 8.57938 5.00805 -19.00507 -119.04183 -47.63674 -92.27558 312.07861 53.58271 -44.20242 34.71803 8.41422 -26.56313 23.90571 3.70236 -15.64328 83.03592 -2.08592 63.89873 -2.35785 31.95899 121.83165 11.21791 6.49884 -0.89692 17.26691 -18.19151 -12.39669 -35.82537 27.23119 66.37553 17.89820 0.28195 -0.21238 -12.14116 -17.58531 -63.31912 -23.16388 13.54773 -18.89878 12.49420 34.10985 -19.93591 -30.00253 -0.00062 -0.00311 29.40004 -65.16602 39.21970 
-7.66495 91.79761 128.57480 -15.92705 6.26711 -118.44532 -10.28479 34.55340 -1.60966 0.05549 0.05193 -0.09901 3.59789 0.35359 2.15139 6.95315 5.44017 -18.48156 -123.40746 -51.66904 -96.77190 326.06036 60.34691 -58.59957 31.82170 11.52252 -19.37603 22.88994 4.36684 -14.20950 82.31344 0.76559 69.48042 -2.76382 32.16888 118.82639 9.19872 5.53750 -3.84174 20.21662 -16.12134 -7.73680 -33.63075 25.24886 57.43289 24.12059 0.28034 -0.24333 -19.70536 -16.90045 -60.31663 -20.36804 12.99781 -9.83100 14.43619 31.87496 -28.84201 -30.00311 -0.00175 -0.00266 32.81166 -64.70863 42.49823 
-8.01646 91.49146 128.39903 -15.23724 8.05914 -120.95392 -6.71856 34.70053 -4.08658 0.04297 0.05456 -0.08224 2.34774 -0.00199 2.76224 4.61113 5.53274 -16.53742 -130.46298 -55.15355 -103.67867 331.47534 66.14125 -65.20332 31.77806 -2.92609 -16.26154 20.71252 5.20170 -11.26768 81.91816 2.53376 72.41861 -3.20445 32.24464 117.23197 9.89668 5.63500 -3.83069 22.48722 -14.06575 -4.99370 -31.99207 21.04674 49.79117 6.44115 -0.71936 0.72190 2.58121 -11.02480 -54.69056 -17.96410 12.39278 -1.54851 16.34764 30.04026 -36.91667 -30.00284 -0.00263 -0.00262 35.06974 -64.28913 44.91655 
-8.56627 91.10414 128.28949 -14.50512 9.66037 -123.27473 -3.30380 34.42062 -6.60770 -0.01648 0.00264 0.01351 1.17962 0.00452 3.46539 2.67594 5.81014 -14.00020 -135.03778 -54.93605 -107.63565 336.44022 70.61324 -69.35032 32.13131 1.23563 -14.35152 18.54741 6.25543 -8.38687 81.80095 3.58518 73.80948 -3.63728 32.19081 116.24291 9.16412 5.76107 -4.53264 24.34009 -12.08496 -3.87486 -30.64074 18.02504 44.80601 -12.39827 -0.96917 0.19569 21.28100 -8.53313 -50.93527 -16.15099 11.75717 5.99037 20.32950 28.03640 -45.45707 -30.01350 -0.00928 -0.00536 36.16650 -64.71692 47.84184 
-9.35588 90.70512 128.19783 -13.72796 11.11179 -125.44349 -0.09895 33.73058 -8.95872 -0.02281 0.00297 0.02065 0.03758 0.26295 4.32874 0.94305 6.24188 -10.92445 -137.06613 -53.25813 -109.04798 340.04752 73.67062 -71.91032 32.92647 -4.82026 -13.74286 16.38736 7.41914 -5.57798 81.92504 4.25175 74.31939 -4.06776 32.06371 115.53255 10.01127 6.31251 -3.62540 25.89087 -10.71267 -4.17589 -29.68798 14.90904 42.83407 -5.29169 0.20299 0.02145 14.73543 -6.56837 -47.70372 -14.89844 11.07479 12.78377 23.44283 26.31661 -52.42289 -29.51614 0.00444 -0.00016 36.81717 -64.95437 49.89545 
-10.40959 90.32314 128.10757 -12.91340 12.42810 -127.51191 2.83282 32.70453 -10.98222 -0.02255 0.00836 0.02171 -1.01393 0.76211 5.21014 -0.73129 6.87816 -8.27143 -136.67339 -54.91093 -110.70781 334.45886 73.32372 -68.05545 32.98249 -0.72959 -12.22796 14.34415 8.64413 -3.07371 82.24154 4.75269 74.35854 -4.47202 31.87870 114.91638 9.97242 6.78058 -3.33268 27.18532 -10.10653 -5.69026 -28.96027 12.24493 43.18002 -7.78487 -0.03566 0.05689 16.70570 -4.22094 -46.40683 -14.61311 9.98226 17.94827 26.46688 25.61712 -57.28222 -28.70710 0.00576 0.00300 37.04592 -65.28368 51.20300 
-11.71672 89.95755 128.02916 -12.07505 13.60536 -129.50449 5.44036 31.40778 -12.57895 -0.02227 0.01268 0.02162 -1.94799 1.46817 6.05143 -2.26580 7.68401 -5.85977 -135.45274 -54.87288 -110.54305 331.97269 73.41670 -66.08146 33.13310 -2.44654 -12.00974 12.47730 9.91044 -0.92035 82.68704 5.12389 74.15836 -4.83016 31.67476 114.36181 10.83930 7.39709 -2.24522 28.21131 -10.30460 -8.24299 -28.22263 10.14486 45.29789 -6.20162 0.03873 -0.00245 14.54419 -2.15614 -45.11332 -14.96811 8.72997 21.47992 29.48944 25.76172 -60.27356 -27.70194 0.00470 0.00685 36.91751 -65.89424 51.91525 
-13.23684 89.59586 127.98212 -11.23054 14.62729 -131.41917 7.68910 29.89807 -13.70429 -0.02215 0.01657 0.02065 -2.73809 2.34835 6.80401 -3.66829 8.65256 -3.61127 -133.84459 -54.07463 -109.46524 331.15207 73.45044 -65.32272 33.48939 0.53751 -10.91021 10.79811 11.21115 0.85052 83.22857 5.35874 73.88159 -5.07622 31.45076 113.80720 11.16078 7.88957 -1.68134 28.89567 -11.24199 -11.71066 -27.43909 8.78673 48.83438 -7.12068 -0.00179 0.01812 14.46574 -0.41842 -44.31924 -15.76539 7.51456 23.46461 32.41165 26.58797 -61.60696 -26.57916 0.00333 0.01114 36.50065 -66.78612 52.19574 
-14.92084 89.23322 127.97887 -10.40070 15.47362 -133.23523 9.55869 28.22821 -14.35646 -0.02183 0.02050 0.01880 -3.35567 3.37187 7.42705 -4.93282 9.77443 -1.61691 -132.27032 -53.12294 -108.17391 331.14575 73.28416 -65.42552 33.32887 0.21769 -10.66704 9.31322 12.54257 2.20715 83.83770 5.46405 73.62527 -5.18747 31.22293 113.24698 12.01734 8.41870 -0.74961 29.14488 -12.80985 -16.00571 -26.65621 8.25325 53.51724 -7.26106 0.00654 0.00869 13.44424 1.00858 -43.61279 -16.88021 6.47364 24.00393 35.01403 27.95448 -61.43550 -25.41035 0.00240 0.01435 35.81726 -67.82350 52.15831 
-16.72231 88.87354 128.02055 -9.60881 16.12633 -134.92305 11.02772 26.44883 -14.55631 -0.02137 0.02460 0.01624 -3.76606 4.50664 7.88742 -6.04502 11.03385 0.00231 -130.85643 -52.32887 -106.94958 331.58786 72.91782 -66.16550 33.14230 2.28413 -9.83196 8.02430 13.89622 3.13612 84.50019 5.44525 73.45352 -5.14237 30.99092 112.65368 12.55555 8.83122 -0.21259 28.84449 -14.87825 -21.06173 -26.03362 8.56645 59.14091 -8.11127 -0.00024 0.01036 12.96540 2.01418 -43.25998 -18.22418 5.70537 23.19472 37.01816 29.72506 -59.84728 -24.25617 0.00224 0.01531 34.81011 -68.80183 51.83905 
-18.58113 88.52937 128.09204 -8.87368 16.58187 -136.45085 12.20144 24.99898 -14.55151 -0.02055 0.02441 0.01436 -3.95534 5.30154 8.29336 -6.96384 11.98777 1.20329 -129.52089 -51.59308 -105.71741 332.53955 72.63322 -67.39863 32.25906 2.69128 -9.44616 6.90081 14.87964 3.82146 85.19050 5.35791 73.37924 -4.97746 30.77442 112.05602 13.41046 9.22867 0.49365 28.35519 -16.42233 -25.72981 -26.07631 9.75810 64.24709 -9.27119 -0.01310 -0.00311 12.42346 1.90409 -43.10494 -19.70380 5.28978 21.12935 38.13204 31.75016 -56.86956 -23.15580 0.00269 0.01385 33.34060 -69.50109 51.16376 
-20.43391 88.22307 128.16821 -8.20524 16.85462 -137.79948 13.08185 23.83833 -14.39128 -0.02050 0.02327 0.01252 -3.93991 5.79513 8.65474 -7.70544 12.67649 2.11763 -128.06816 -50.90425 -104.35892 333.98654 72.19450 -69.16260 32.12799 4.14914 -8.72969 5.92959 15.54235 4.29103 85.89107 5.20232 73.39706 -4.71438 30.58249 111.46188 14.05507 9.52163 0.91676 27.71430 -17.41977 -29.96585 -26.77376 11.21334 68.83208 -10.50810 -0.01075 -0.01426 11.87347 0.95672 -43.31717 -20.98064 5.05619 19.03226 38.63313 33.43598 -53.75766 -22.06476 0.00329 0.01094 31.26473 -69.74744 50.01745 
-22.24340 87.98205 128.22394 -7.61519 16.97175 -138.96704 13.66468 22.93694 -14.10216 -0.02046 0.02166 0.01073 -3.73991 6.03250 8.98143 -8.26633 13.13250 2.83291 -126.42115 -50.27016 -102.83448 335.70880 71.51538 -71.30679 31.36797 4.70953 -8.25702 5.13425 15.93049 4.57173 86.56548 4.98454 73.47829 -4.39113 30.42727 110.90094 14.82823 9.78330 1.41017 26.99340 -17.97411 -33.71385 -27.85659 12.41250 72.90611 -11.55294 -0.00493 -0.01624 11.36779 -0.26534 -43.93070 -22.07590 4.97858 16.95649 38.51777 34.73553 -50.48709 -20.91823 0.00353 0.00720 28.53564 -69.46266 48.37608 
-24.00000 87.82547 128.24142 -7.11931 16.96760 -139.96349 13.94867 22.27455 -13.70157 -0.01966 0.01992 0.00897 -3.38140 6.05663 9.28548 -8.88150 13.37602 3.32674 -124.43321 -49.63361 -100.75159 339.70532 66.68056 -76.32296 26.45182 6.94597 -7.43891 4.53239 16.08458 4.69284 87.19621 4.73245 73.59763 -4.05541 30.31363 110.38948 15.38366 9.96837 1.70987 26.25889 -18.20023 -36.92817 -29.04206 13.12088 76.47210 -12.24771 -0.00057 -0.01154 10.87579 -1.45920 -44.81485 -23.01982 5.05850 14.96345 37.83493 35.63533 -47.06414 -19.65160 0.00326 0.00294 25.24333 -68.64327 46.35380 
-25.72944 87.78407 128.20615 -6.73900 16.88734 -140.79514 13.95117 21.83594 -13.21335 -0.01863 0.01781 0.00739 -2.89819 5.91434 9.57531 -9.26829 13.44681 3.68586 -122.39635 -48.92201 -98.36141 342.62341 64.33434 -80.01393 24.14943 7.94619 -6.81192 4.17454 16.05614 4.68205 87.72299 4.43698 73.70842 -3.74482 30.24118 109.97630 15.92441 10.12881 2.03819 25.72796 -17.84070 -38.48013 -29.79788 13.45167 78.40319 -12.47862 0.00158 -0.00470 10.42592 -2.48603 -45.88311 -23.74765 5.13539 13.10138 38.23005 36.51463 -43.33793 -37.75780 0.28037 0.06755 37.48350 -68.52962 41.07541 
-27.43867 87.85574 128.12766 -6.51415 16.76659 -141.46519 13.04715 22.74988 -12.07756 -0.08270 0.09495 0.03205 -1.39639 4.58290 9.44630 -8.29663 12.38976 3.48851 -120.46389 -48.10617 -95.91502 345.00684 63.25019 -83.07430 23.37419 8.94951 -6.19130 5.10790 14.80617 4.17994 88.03507 4.12729 73.70815 -3.48288 30.19215 109.79317 16.26431 10.23219 2.23860 25.33259 -17.05693 -38.55841 -30.10541 13.50330 78.93211 -12.22189 0.00150 0.00085 10.02868 -3.37362 -47.05471 -24.12438 5.20987 11.40930 35.28988 38.89252 -38.30308 -30.55087 -0.05723 -0.04175 27.31404 -66.95602 35.95424 
-29.12776 88.04327 128.02492 -6.45241 16.64064 -141.98386 12.01618 23.59690 -10.97821 -0.00918 0.00755 0.00187 -0.17391 3.52222 9.45355 -7.40168 11.57438 3.43292 -118.65407 -47.27602 -93.59952 346.95108 62.73625 -85.65512 23.27565 9.46597 -5.74607 5.95687 13.83063 3.70993 88.19367 3.71378 73.58751 -3.26769 30.15252 109.82607 16.53599 10.30730 2.46684 24.97354 -15.96304 -37.35256 -30.02354 13.40144 78.27281 -11.51681 -0.00026 0.00435 9.69431 -4.19748 -48.28423 -24.22452 5.24187 9.92041 32.97098 40.53877 -34.40203 -30.04198 0.00039 -0.00036 24.19081 -65.45100 32.29036 
